<?xml version="1.0" standalone="no"?><!DOCTYPE svg PUBLIC "-//W3C//DTD SVG 1.1//EN" "http://www.w3.org/Graphics/SVG/1.1/DTD/svg11.dtd"><svg t="1605232216564" class="icon" viewBox="0 0 1024 1024" version="1.1" xmlns="http://www.w3.org/2000/svg" p-id="18376" xmlns:xlink="http://www.w3.org/1999/xlink" width="128" height="128"><defs><style type="text/css"></style></defs><path d="M767.036529 348.209874a281.843702 281.843702 0 0 1-78.267877 83.425282C770.890414 104.905025 435.602391 0 435.602391 0 534.669914 361.981846 86.939119 389.809165 86.939119 681.570954s342.429046 342.429046 342.429046 342.429046a578.082798 578.082798 0 0 1-58.148329-74.924065A424.380784 424.380784 0 0 0 443.990259 968.742085c-212.813814-234.576932-2.323666-380.62785 54.691167-413.725924a146.390967 146.390967 0 0 0 1.926942 42.562763c0.963471 35.081691 17.909232 87.109143 85.012177 151.208324 90.169582 86.259021-8.954616 220.124862-8.954616 220.124862a167.530662 167.530662 0 0 0 48.683639-8.161169 345.716183 345.716183 0 0 1-34.968342 63.135709C701.747177 1025.246845 937.060881 878.459154 937.060881 678.907239s-170.024352-330.697366-170.024352-330.697365z" fill="#467CFD" p-id="18377"></path></svg>