<?xml version="1.0" standalone="no"?><!DOCTYPE svg PUBLIC "-//W3C//DTD SVG 1.1//EN" "http://www.w3.org/Graphics/SVG/1.1/DTD/svg11.dtd"><svg t="1605233551196" class="icon" viewBox="0 0 1024 1024" version="1.1" xmlns="http://www.w3.org/2000/svg" p-id="42704" xmlns:xlink="http://www.w3.org/1999/xlink" width="128" height="128"><defs><style type="text/css"></style></defs><path d="M382.624676 332.504554l279.628612 0c18.858214 0 37.014904-7.981788 49.119297-22.454576 28.857435-34.295747 56.22408-76.398002 62.363917-114.11443 12.367415-75.520797-19.998641-113.851409-113.851409-113.851409s-62.100696 61.574453-98.589356 66.661803c-27.190965 3.771643-26.226219-32.102834-68.942257-66.574063-30.699586-24.647289-65.082874 44.996692-105.606399 45.435195-47.277146 0.613984-113.763668-12.455155-113.763668 68.328273 0 32.629277 28.594413 76.748764 59.820242 113.324966C345.346751 323.908582 363.4155 332.504554 382.624676 332.504554zM731.458767 404.428989c-14.91109-16.928522-36.576201-26.4017-59.118518-26.4017L373.941164 378.027289c-21.577371 0-42.365276 8.683513-57.276566 24.296527C222.89937 500.562411 136.414607 640.815319 136.414607 743.088578c0 90.168866 90.607368 204.020274 202.353604 204.020274l346.465896 0c111.746236 0 202.353604-112.886463 202.353604-204.020274C887.587911 638.973368 818.031471 502.667583 731.458767 404.428989zM640.325156 528.54284l-59.995523 108.851798c-5.262832 9.560718 1.66647 21.314149 12.542896 21.314149l17.016263 0c7.894248 0 14.384847 6.403059 14.384847 14.384847l0 0c0 7.894248-6.403059 14.384847-14.384847 14.384847l-42.803979 0c-8.33275 0-14.998831 6.66628-15.086571 14.998831l0 7.104783c0 7.894248 6.403059 14.384847 14.384847 14.384847l43.505503 0c7.894248 0 14.384847 6.403059 14.384847 14.384847s-6.403059 14.384847-14.384847 14.384847l-43.505503 0c-7.894248 0-14.384847 6.403059-14.384847 14.384847l0 36.576201c0 7.894248-6.403059 14.384847-14.384847 14.384847l-26.050738 0c-7.894248 0-14.384847-6.403059-14.384847-14.384847l0-36.576201c0-7.894248-6.403059-14.384847-14.384847-14.384847l-43.067001 0c-7.894248 0-14.384847-6.403059-14.384847-14.384847s6.403059-14.384847 14.384847-14.384847l42.97926 0c7.981988 0 14.385047-6.403059 14.472588-14.384847l0.087741-7.017042c0.087741-8.33275-6.66628-15.174312-15.086571-15.174312l-42.453017 0c-7.894248 0-14.384847-6.403059-14.384847-14.384847l0 0c0-7.894248 6.403059-14.384847 14.384847-14.384847l16.57776 0c10.964166 0 17.805728-11.753431 12.542896-21.314149l-59.995723-108.851599c-5.262832-9.560718 1.66647-21.314349 12.542896-21.314349l28.594413 0c5.438113 0 10.437923 3.069919 12.806117 7.894248l48.856076 97.44893c5.262832 10.525464 20.349403 10.525464 25.699975 0l48.856076-97.44893c2.455935-4.824129 7.367805-7.894248 12.806117-7.894248l28.594413 0C638.658486 507.316232 645.587987 518.982122 640.325156 528.54284z" p-id="42705" fill="#f69507"></path></svg>