<?xml version="1.0" standalone="no"?><!DOCTYPE svg PUBLIC "-//W3C//DTD SVG 1.1//EN" "http://www.w3.org/Graphics/SVG/1.1/DTD/svg11.dtd"><svg t="1605236891502" class="icon" viewBox="0 0 1024 1024" version="1.1" xmlns="http://www.w3.org/2000/svg" p-id="47549" xmlns:xlink="http://www.w3.org/1999/xlink" width="128" height="128"><defs><style type="text/css"></style></defs><path d="M510.695 64.054C263.556 64.054 63.21 264.4 63.21 511.539s200.345 447.485 447.485 447.485S958.18 758.678 958.18 511.539 757.835 64.054 510.695 64.054zM319.302 545.861h-60.398V409.277h60.398v136.584z m213.189 204.768c-8.525 23.362-65.031 20.835-65.031 20.835-65.027-83.97-73.868-164.15-73.868-164.15l61.557-0.001c8.373 55.558 59.587 98.819 65.346 107.961 17.992 19.886 11.996 35.355 11.996 35.355z m143.367-79.499s-72.287-93.752-321.343-105.12l-0.064-174.938s210.241-7.682 320.521-139.002v-0.001s94.325-22.553 87.127 224.764c-0.004 0.001 10.036 170.306-86.239 194.297h-0.002z" p-id="47550" fill="#0a91ff"></path></svg>