<?xml version="1.0" standalone="no"?><!DOCTYPE svg PUBLIC "-//W3C//DTD SVG 1.1//EN" "http://www.w3.org/Graphics/SVG/1.1/DTD/svg11.dtd"><svg t="1614678283497" class="icon" viewBox="0 0 1024 1024" version="1.1" xmlns="http://www.w3.org/2000/svg" p-id="13065" xmlns:xlink="http://www.w3.org/1999/xlink" width="128" height="128"><defs><style type="text/css"></style></defs><path d="M508.893867 172.6464v172.680533h172.6464a172.578133 172.578133 0 0 0 172.680533-172.680533A172.578133 172.578133 0 0 0 681.540267 0a172.578133 172.578133 0 0 0-172.6464 172.6464z m18.158933 127.249067a172.3392 172.3392 0 0 1 143.428267-169.949867c1.262933 7.9872 1.979733 16.1792 1.979733 24.541867a172.6464 172.6464 0 0 1-145.408 170.325333v-24.917333z" fill="#FF5F0E" p-id="13066"></path><path d="M672.4608 154.487467c0-8.362667-0.7168-16.520533-1.979733-24.541867 9.6256-1.6384 19.2512-2.730667 29.252266-2.730667a172.373333 172.373333 0 0 1 149.4016 86.357334 172.509867 172.509867 0 0 1-167.594666 131.754666h-154.487467v-20.548266a172.509867 172.509867 0 0 0 145.408-170.2912z" fill="#DA520C" p-id="13067"></path><path d="M336.213333 0a172.578133 172.578133 0 0 0-172.6464 172.6464 172.578133 172.578133 0 0 0 172.680534 172.680533h172.6464V172.6464A172.578133 172.578133 0 0 0 336.247467 0z m154.5216 324.778667a172.6464 172.6464 0 0 1-145.408-170.2912c0-8.362667 0.7168-16.554667 1.979734-24.541867a172.475733 172.475733 0 0 1 143.394133 169.949867v24.917333z" fill="#FF5F0E" p-id="13068"></path><path d="M345.326933 154.487467c0-8.362667 0.7168-16.520533 1.979734-24.541867a173.4656 173.4656 0 0 0-29.252267-2.730667 172.373333 172.373333 0 0 0-149.4016 86.357334 172.509867 172.509867 0 0 0 167.594667 131.754666h154.453333v-20.548266a172.509867 172.509867 0 0 1-145.408-170.2912z" fill="#DA520C" p-id="13069"></path><path d="M945.083733 563.438933H72.704v436.224h872.379733v-436.224z" fill="#F9BF3B" p-id="13070"></path><path d="M617.949867 563.438933h399.837866v-181.76c0-20.002133-16.349867-36.352-36.352-36.352H36.352c-20.002133 0-36.352 16.384-36.352 36.352v181.76h399.837867" fill="#F9BF3B" p-id="13071"></path><path d="M945.083733 563.438933H72.704v72.704h872.379733v-72.704z" fill="#F9A13B" p-id="13072"></path><path d="M581.597867 345.326933h-145.408v654.301867h145.408V345.326933z" fill="#FF5F0E" p-id="13073"></path><path d="M617.949867 327.133867c0-14.165333-2.730667-27.648-7.850667-40.174934a170.871467 170.871467 0 0 1-83.0464 37.819734v20.514133h90.897067v-18.158933z" fill="#CC480B" p-id="13074"></path><path d="M545.245867 320.785067a154.282667 154.282667 0 0 1-18.193067 3.9936v-24.917334c0-27.613867 6.5536-53.76 18.193067-76.868266V172.6464c0-28.501333-5.802667-55.978667-16.1792-80.6912a169.642667 169.642667 0 0 0-20.1728 80.6912v172.680533h36.352v-24.541866z" fill="#E1500C" p-id="13075"></path><path d="M581.597867 345.326933a72.704 72.704 0 1 0-145.408 0h145.408z" fill="#FF5F0E" p-id="13076"></path><path d="M581.597867 345.326933h-145.408v218.112h145.408v-218.112z" fill="#FF730E" p-id="13077"></path></svg>