<svg id="图层_1" data-name="图层 1" xmlns="http://www.w3.org/2000/svg" viewBox="0 0 190.15 193.15"><defs><style>.cls-1{fill:#ffffff;}</style></defs><title>未标题-1</title><path class="cls-1" d="M136.32,68.33c-4.51-2.22-8.15-2.76-10.41-7.61-2.06-4.45-4.79-8-9.53-9.88a34.36,34.36,0,0,0-17.2-1.71c-8,1.21-15.61,4.38-19.86,11.57-2,3.45-5.75,4.17-9.33,5.27-9.16,2.81-30.68,18.12-25.83,44.6,2.76,15.08,8.65,21.87,13.22,24.93a18.44,18.44,0,0,0,10.8.51c7.81-2.12,14.37-6.15,19-12.62,3.73-5.21,4.86-10.89,2.8-17.14-1.71.43-3.13.91-4.59,1.14-5.28.85-10.47.8-15-2.5-2.48-1.83-2.31-3.94.36-5.5,2.49-1.45,5.12-2.68,7.7-4,3.42-1.71,6.55-4.06,10.72-4a3.51,3.51,0,0,0,1.93-1.19c4.32-4.34,5-8.74,2.33-14.11-.13-.25,0-.61,0-1.2,4.39,1.48,6.38,4.45,6.85,8.65,11.33-3,11.66-9.74,6.6-18.76,6,1.93,7.77,5.58,7.93,10.67a7.16,7.16,0,0,0,2.24-6.93,68.56,68.56,0,0,0-1.92-6.94c7,1.14,10.3,7.45,6.88,13-3.78,6.1-9.8,9.36-16.55,11.6C101.64,87.41,98,89,95,92.23c2-.19,3.75-.46,5.47-.47.79,0,2.18.35,2.26.75A2.91,2.91,0,0,1,102,95a34.75,34.75,0,0,1-4.28,2.83c12.49,13,17.47,27.27,12.92,43.29,18.27-6.81,25.79-15.87,25.79-15.87,5.8-6.28,10.73-13.67,12.92-22C152.67,90.67,148.75,74.42,136.32,68.33Z"/></svg>